<svg width="3682" height="500" viewBox="0 0 3682 500" fill="none" xmlns="http://www.w3.org/2000/svg">
<path d="M3531.42 489.173V216.535C3531.42 191.601 3523.55 171.588 3507.8 156.496C3492.71 140.748 3473.36 132.874 3449.74 132.874C3433.33 132.874 3418.9 136.483 3406.43 143.701C3393.97 150.262 3384.13 160.105 3376.91 173.228C3369.69 185.695 3366.08 200.131 3366.08 216.535L3308.02 187.992C3308.02 150.59 3316.22 117.782 3332.62 89.5668C3349.02 61.3516 3371.66 39.698 3400.53 24.6062C3430.05 8.85816 3463.19 0.984128 3499.93 0.984128C3535.36 0.984128 3566.52 9.51429 3593.43 26.5746C3620.98 42.9789 3642.63 64.9605 3658.38 92.5195C3674.13 120.079 3682 150.262 3682 183.071V489.173H3531.42ZM3215.51 489.173V10.8267H3366.08V489.173H3215.51Z" fill="#F5F5F5"/>
<path d="M2829.98 499.016C2786.02 499.016 2746.66 488.189 2711.88 466.535C2677.76 444.882 2650.54 415.354 2630.2 377.953C2610.51 340.551 2600.67 297.9 2600.67 250C2600.67 202.1 2610.51 159.449 2630.2 122.047C2650.54 84.6455 2677.76 55.118 2711.88 33.4644C2746.66 11.8109 2786.02 0.984128 2829.98 0.984128C2862.13 0.984128 2891 7.21773 2916.59 19.6849C2942.83 32.1521 2964.16 49.5406 2980.56 71.8503C2996.96 93.5038 3006.15 118.438 3008.12 146.653V353.346C3006.15 381.562 2996.96 406.824 2980.56 429.134C2964.81 450.787 2943.82 467.848 2917.57 480.315C2891.33 492.782 2862.13 499.016 2829.98 499.016ZM2860.49 363.189C2892.64 363.189 2918.56 352.69 2938.24 331.693C2957.92 310.039 2967.77 282.808 2967.77 250C2967.77 227.69 2963.17 208.005 2953.99 190.945C2945.46 173.884 2932.99 160.761 2916.59 151.575C2900.84 141.732 2882.47 136.811 2861.48 136.811C2840.48 136.811 2821.78 141.732 2805.38 151.575C2789.63 160.761 2776.84 173.884 2767 190.945C2757.81 208.005 2753.22 227.69 2753.22 250C2753.22 271.653 2757.81 291.01 2767 308.071C2776.18 325.131 2788.97 338.583 2805.38 348.425C2821.78 358.268 2840.15 363.189 2860.49 363.189ZM2961.86 489.173V360.236L2984.5 244.094L2961.86 127.953V10.8267H3109.48V489.173H2961.86Z" fill="#F5F5F5"/>
<path d="M2384.77 500C2335.56 500 2290.95 489.173 2250.92 467.52C2210.9 445.866 2179.41 416.01 2156.44 377.953C2133.48 339.895 2122 297.244 2122 250C2122 202.1 2133.48 159.449 2156.44 122.047C2180.06 83.9895 2211.88 54.1338 2251.91 32.4803C2291.93 10.8268 2336.87 0 2386.74 0C2424.14 0 2458.25 6.56167 2489.09 19.685C2520.58 32.1522 2548.47 51.1811 2572.75 76.7716L2476.3 173.228C2465.14 160.761 2452.02 151.575 2436.93 145.669C2422.5 139.764 2405.77 136.811 2386.74 136.811C2365.09 136.811 2345.73 141.732 2328.67 151.575C2312.27 160.761 2299.15 173.884 2289.31 190.945C2280.12 207.349 2275.53 226.706 2275.53 249.016C2275.53 271.325 2280.12 291.01 2289.31 308.071C2299.15 325.131 2312.6 338.583 2329.66 348.425C2346.72 358.268 2365.74 363.189 2386.74 363.189C2406.42 363.189 2423.81 359.908 2438.9 353.346C2454.65 346.129 2468.1 336.286 2479.25 323.819L2574.71 420.276C2549.78 446.522 2521.57 466.535 2490.08 480.315C2458.58 493.438 2423.48 500 2384.77 500Z" fill="#F5F5F5"/>
<path d="M1907.6 489.173V216.535C1907.6 181.102 1896.44 151.903 1874.13 128.937C1851.83 105.971 1822.96 94.488 1787.53 94.488C1763.91 94.488 1742.91 99.7373 1724.54 110.236C1706.17 120.735 1691.74 135.17 1681.24 153.543C1670.74 171.916 1665.49 192.913 1665.49 216.535L1629.08 195.866C1629.08 160.433 1636.95 128.937 1652.7 101.378C1668.44 73.8187 1690.42 52.1652 1718.64 36.4171C1746.85 20.0129 1778.67 11.8108 1814.1 11.8108C1849.53 11.8108 1880.7 20.6691 1907.6 38.3856C1935.15 56.1021 1956.8 79.3961 1972.55 108.267C1988.3 136.483 1996.17 166.666 1996.17 198.819V489.173H1907.6ZM1576.92 489.173V21.6533H1665.49V489.173H1576.92Z" fill="#F5F5F5"/>
<path d="M1202.9 499.016C1160.26 499.016 1121.55 488.517 1086.77 467.519C1052 445.866 1024.44 416.666 1004.1 379.921C984.418 343.176 974.577 301.837 974.577 255.905C974.577 209.974 984.418 168.635 1004.1 131.89C1024.44 95.1441 1051.67 65.9446 1085.79 44.2911C1120.56 22.6376 1159.6 11.8108 1202.9 11.8108C1238.33 11.8108 1269.83 19.3568 1297.38 34.4486C1325.6 48.8843 1348.23 69.2255 1365.29 95.4722C1382.35 121.063 1391.86 150.918 1393.83 185.039V325.787C1391.86 359.252 1382.35 389.107 1365.29 415.354C1348.89 441.601 1326.58 462.27 1298.37 477.362C1270.81 491.798 1238.99 499.016 1202.9 499.016ZM1217.67 415.354C1261.62 415.354 1297.05 400.59 1323.96 371.063C1350.86 340.879 1364.31 302.493 1364.31 255.905C1364.31 223.753 1358.07 195.866 1345.61 172.244C1333.8 147.966 1316.74 129.265 1294.43 116.141C1272.12 102.362 1246.21 95.4722 1216.68 95.4722C1187.16 95.4722 1160.91 102.362 1137.95 116.141C1115.64 129.921 1097.93 148.95 1084.8 173.228C1072.34 196.85 1066.1 224.081 1066.1 254.921C1066.1 286.417 1072.34 314.304 1084.8 338.582C1097.93 362.204 1115.97 380.905 1138.93 394.685C1161.9 408.464 1188.14 415.354 1217.67 415.354ZM1358.4 489.173V363.189L1375.13 249.016L1358.4 135.827V21.6533H1447.96V489.173H1358.4Z" fill="#F5F5F5"/>
<path d="M535.17 440.945L812.705 69.8817H917.026L639.492 440.945H535.17ZM535.17 489.173V440.945L613.903 408.464H911.121V489.173H535.17ZM551.901 102.362V21.6533H917.026V69.8817L835.341 102.362H551.901Z" fill="#F5F5F5"/>
<path d="M244.073 499.016C198.145 499.016 156.81 488.189 120.068 466.535C83.326 444.882 54.1291 415.682 32.4775 378.937C10.8258 341.535 0 299.869 0 253.937C0 208.661 10.8258 167.979 32.4775 131.89C54.1291 95.1441 83.326 65.9446 120.068 44.2911C156.81 22.6376 198.145 11.8108 244.073 11.8108C289.345 11.8108 330.351 22.6376 367.094 44.2911C404.492 65.2885 434.017 94.1599 455.668 130.905C477.32 167.651 488.146 208.661 488.146 253.937C488.146 299.869 477.32 341.535 455.668 378.937C434.017 415.682 404.492 444.882 367.094 466.535C330.351 488.189 289.345 499.016 244.073 499.016ZM244.073 413.386C273.598 413.386 299.842 406.496 322.806 392.716C345.77 378.937 363.813 360.236 376.935 336.614C390.057 312.336 396.619 284.777 396.619 253.937C396.619 223.753 389.729 196.85 375.951 173.228C362.829 149.606 344.786 131.233 321.822 118.11C299.514 104.33 273.598 97.4407 244.073 97.4407C214.548 97.4407 188.304 104.33 165.34 118.11C142.376 131.233 124.333 149.606 111.211 173.228C98.0885 196.85 91.5274 223.753 91.5274 253.937C91.5274 284.777 98.0885 312.336 111.211 336.614C124.333 360.236 142.376 378.937 165.34 392.716C188.304 406.496 214.548 413.386 244.073 413.386Z" fill="#F5F5F5"/>
</svg>
